<mxfile host="app.diagrams.net" modified="2023-11-04T18:02:54.487Z" agent="Mozilla/5.0 (Windows NT 10.0; Win64; x64) AppleWebKit/537.36 (KHTML, like Gecko) Chrome/118.0.0.0 Safari/537.36 OPR/104.0.0.0" etag="wIpdAJTPlVWiV7f0Y803" version="22.0.8" type="github">
  <diagram name="Page-1" id="7MVGUO7DcguH7Mq95WL0">
    <mxGraphModel dx="996" dy="1667" grid="1" gridSize="10" guides="1" tooltips="1" connect="1" arrows="1" fold="1" page="1" pageScale="1" pageWidth="850" pageHeight="1100" math="0" shadow="0">
      <root>
        <mxCell id="0" />
        <mxCell id="1" parent="0" />
        <mxCell id="fTYlHA8iuK9BBwbpo4Ni-1" value="User" style="rounded=0;whiteSpace=wrap;html=1;" parent="1" vertex="1">
          <mxGeometry x="130" y="-1030" width="120" height="60" as="geometry" />
        </mxCell>
        <mxCell id="fTYlHA8iuK9BBwbpo4Ni-2" value="System" style="rounded=0;whiteSpace=wrap;html=1;" parent="1" vertex="1">
          <mxGeometry x="350" y="-1030" width="120" height="60" as="geometry" />
        </mxCell>
        <mxCell id="fTYlHA8iuK9BBwbpo4Ni-3" value="" style="endArrow=none;dashed=1;html=1;rounded=0;exitX=0.5;exitY=1;exitDx=0;exitDy=0;" parent="1" source="fTYlHA8iuK9BBwbpo4Ni-25" edge="1">
          <mxGeometry width="50" height="50" relative="1" as="geometry">
            <mxPoint x="400" y="-1060" as="sourcePoint" />
            <mxPoint x="190" y="-520" as="targetPoint" />
          </mxGeometry>
        </mxCell>
        <mxCell id="fTYlHA8iuK9BBwbpo4Ni-4" value="" style="endArrow=none;dashed=1;html=1;rounded=0;entryX=0.5;entryY=1;entryDx=0;entryDy=0;" parent="1" source="fTYlHA8iuK9BBwbpo4Ni-7" target="fTYlHA8iuK9BBwbpo4Ni-2" edge="1">
          <mxGeometry width="50" height="50" relative="1" as="geometry">
            <mxPoint x="410" y="-370" as="sourcePoint" />
            <mxPoint x="450" y="-940" as="targetPoint" />
          </mxGeometry>
        </mxCell>
        <mxCell id="fTYlHA8iuK9BBwbpo4Ni-5" value="Accounts&amp;nbsp;" style="rounded=0;whiteSpace=wrap;html=1;" parent="1" vertex="1">
          <mxGeometry x="760" y="-1030" width="120" height="60" as="geometry" />
        </mxCell>
        <mxCell id="fTYlHA8iuK9BBwbpo4Ni-6" value="" style="endArrow=none;dashed=1;html=1;rounded=0;entryX=0.5;entryY=1;entryDx=0;entryDy=0;" parent="1" source="fTYlHA8iuK9BBwbpo4Ni-15" target="fTYlHA8iuK9BBwbpo4Ni-5" edge="1">
          <mxGeometry width="50" height="50" relative="1" as="geometry">
            <mxPoint x="820" y="-370" as="sourcePoint" />
            <mxPoint x="700" y="-940" as="targetPoint" />
          </mxGeometry>
        </mxCell>
        <mxCell id="fTYlHA8iuK9BBwbpo4Ni-8" value="" style="endArrow=none;dashed=1;html=1;rounded=0;entryX=0.5;entryY=1;entryDx=0;entryDy=0;" parent="1" source="fTYlHA8iuK9BBwbpo4Ni-19" target="fTYlHA8iuK9BBwbpo4Ni-7" edge="1">
          <mxGeometry width="50" height="50" relative="1" as="geometry">
            <mxPoint x="410" y="-370" as="sourcePoint" />
            <mxPoint x="410" y="-970" as="targetPoint" />
          </mxGeometry>
        </mxCell>
        <mxCell id="fTYlHA8iuK9BBwbpo4Ni-7" value="" style="rounded=0;whiteSpace=wrap;html=1;" parent="1" vertex="1">
          <mxGeometry x="400" y="-950" width="20" height="70" as="geometry" />
        </mxCell>
        <mxCell id="fTYlHA8iuK9BBwbpo4Ni-9" value="Login" style="endArrow=classic;html=1;rounded=0;entryX=0;entryY=0;entryDx=0;entryDy=0;endSize=10;" parent="1" target="fTYlHA8iuK9BBwbpo4Ni-7" edge="1">
          <mxGeometry width="50" height="50" relative="1" as="geometry">
            <mxPoint x="190" y="-950" as="sourcePoint" />
            <mxPoint x="430" y="-940" as="targetPoint" />
          </mxGeometry>
        </mxCell>
        <mxCell id="fTYlHA8iuK9BBwbpo4Ni-11" value="" style="endArrow=none;dashed=1;html=1;rounded=0;exitX=0.5;exitY=1;exitDx=0;exitDy=0;" parent="1" source="fTYlHA8iuK9BBwbpo4Ni-1" target="fTYlHA8iuK9BBwbpo4Ni-10" edge="1">
          <mxGeometry width="50" height="50" relative="1" as="geometry">
            <mxPoint x="190" y="-970" as="sourcePoint" />
            <mxPoint x="190" y="-359.2000732421875" as="targetPoint" />
          </mxGeometry>
        </mxCell>
        <mxCell id="fTYlHA8iuK9BBwbpo4Ni-10" value="" style="rounded=0;whiteSpace=wrap;html=1;" parent="1" vertex="1">
          <mxGeometry x="180" y="-810" width="20" height="40" as="geometry" />
        </mxCell>
        <mxCell id="fTYlHA8iuK9BBwbpo4Ni-12" value="Get a list of contacts" style="endArrow=classic;html=1;rounded=0;entryX=0;entryY=0;entryDx=0;entryDy=0;endFill=1;endSize=10;" parent="1" target="fTYlHA8iuK9BBwbpo4Ni-15" edge="1">
          <mxGeometry x="-0.3659" width="50" height="50" relative="1" as="geometry">
            <mxPoint x="400" y="-880" as="sourcePoint" />
            <mxPoint x="450" y="-930" as="targetPoint" />
            <mxPoint as="offset" />
          </mxGeometry>
        </mxCell>
        <mxCell id="fTYlHA8iuK9BBwbpo4Ni-13" value="Message" style="rounded=0;whiteSpace=wrap;html=1;" parent="1" vertex="1">
          <mxGeometry x="550" y="-1030" width="120" height="60" as="geometry" />
        </mxCell>
        <mxCell id="fTYlHA8iuK9BBwbpo4Ni-14" value="" style="endArrow=none;dashed=1;html=1;rounded=0;entryX=0.5;entryY=1;entryDx=0;entryDy=0;" parent="1" source="fTYlHA8iuK9BBwbpo4Ni-31" target="fTYlHA8iuK9BBwbpo4Ni-13" edge="1">
          <mxGeometry width="50" height="50" relative="1" as="geometry">
            <mxPoint x="610" y="-370" as="sourcePoint" />
            <mxPoint x="630" y="-940" as="targetPoint" />
          </mxGeometry>
        </mxCell>
        <mxCell id="fTYlHA8iuK9BBwbpo4Ni-16" value="" style="endArrow=none;dashed=1;html=1;rounded=0;entryX=0.5;entryY=1;entryDx=0;entryDy=0;" parent="1" target="fTYlHA8iuK9BBwbpo4Ni-15" edge="1">
          <mxGeometry width="50" height="50" relative="1" as="geometry">
            <mxPoint x="820" y="-520" as="sourcePoint" />
            <mxPoint x="820" y="-970" as="targetPoint" />
          </mxGeometry>
        </mxCell>
        <mxCell id="fTYlHA8iuK9BBwbpo4Ni-15" value="" style="rounded=0;whiteSpace=wrap;html=1;" parent="1" vertex="1">
          <mxGeometry x="810" y="-880" width="20" height="40" as="geometry" />
        </mxCell>
        <mxCell id="fTYlHA8iuK9BBwbpo4Ni-17" value="Return result" style="endArrow=classic;html=1;rounded=0;endFill=1;endSize=10;exitX=0;exitY=1;exitDx=0;exitDy=0;entryX=1;entryY=0;entryDx=0;entryDy=0;" parent="1" source="fTYlHA8iuK9BBwbpo4Ni-15" target="fTYlHA8iuK9BBwbpo4Ni-19" edge="1">
          <mxGeometry x="-0.3659" width="50" height="50" relative="1" as="geometry">
            <mxPoint x="410" y="-870" as="sourcePoint" />
            <mxPoint x="430" y="-840" as="targetPoint" />
            <mxPoint as="offset" />
          </mxGeometry>
        </mxCell>
        <mxCell id="fTYlHA8iuK9BBwbpo4Ni-18" value="Show contact list" style="endArrow=classic;html=1;rounded=0;endFill=1;endSize=10;entryX=1;entryY=0;entryDx=0;entryDy=0;exitX=0;exitY=1;exitDx=0;exitDy=0;" parent="1" source="fTYlHA8iuK9BBwbpo4Ni-19" target="fTYlHA8iuK9BBwbpo4Ni-10" edge="1">
          <mxGeometry x="0.1" width="50" height="50" relative="1" as="geometry">
            <mxPoint x="620" y="-740" as="sourcePoint" />
            <mxPoint x="530" y="-790" as="targetPoint" />
            <mxPoint as="offset" />
          </mxGeometry>
        </mxCell>
        <mxCell id="fTYlHA8iuK9BBwbpo4Ni-20" value="" style="endArrow=none;dashed=1;html=1;rounded=0;entryX=0.5;entryY=1;entryDx=0;entryDy=0;" parent="1" source="fTYlHA8iuK9BBwbpo4Ni-27" target="fTYlHA8iuK9BBwbpo4Ni-19" edge="1">
          <mxGeometry width="50" height="50" relative="1" as="geometry">
            <mxPoint x="410" y="-370" as="sourcePoint" />
            <mxPoint x="410" y="-880" as="targetPoint" />
          </mxGeometry>
        </mxCell>
        <mxCell id="fTYlHA8iuK9BBwbpo4Ni-19" value="" style="rounded=0;whiteSpace=wrap;html=1;" parent="1" vertex="1">
          <mxGeometry x="400" y="-840" width="20" height="30" as="geometry" />
        </mxCell>
        <mxCell id="fTYlHA8iuK9BBwbpo4Ni-21" value="Select account" style="endArrow=classic;html=1;rounded=0;entryX=0;entryY=0;entryDx=0;entryDy=0;endSize=10;exitX=1;exitY=1;exitDx=0;exitDy=0;" parent="1" source="fTYlHA8iuK9BBwbpo4Ni-10" target="fTYlHA8iuK9BBwbpo4Ni-22" edge="1">
          <mxGeometry width="50" height="50" relative="1" as="geometry">
            <mxPoint x="210" y="-740" as="sourcePoint" />
            <mxPoint x="420" y="-740" as="targetPoint" />
          </mxGeometry>
        </mxCell>
        <mxCell id="fTYlHA8iuK9BBwbpo4Ni-22" value="" style="rounded=0;whiteSpace=wrap;html=1;" parent="1" vertex="1">
          <mxGeometry x="400" y="-770" width="20" height="40" as="geometry" />
        </mxCell>
        <mxCell id="fTYlHA8iuK9BBwbpo4Ni-24" value="Compose messages,&lt;br&gt;&amp;nbsp;send messages,&lt;br&gt;&amp;nbsp;forward messages" style="endArrow=classic;html=1;rounded=0;endSize=10;exitX=1;exitY=1;exitDx=0;exitDy=0;entryX=0;entryY=0;entryDx=0;entryDy=0;" parent="1" source="fTYlHA8iuK9BBwbpo4Ni-25" target="fTYlHA8iuK9BBwbpo4Ni-27" edge="1">
          <mxGeometry width="50" height="50" relative="1" as="geometry">
            <mxPoint x="230" y="-680" as="sourcePoint" />
            <mxPoint x="390" y="-690" as="targetPoint" />
          </mxGeometry>
        </mxCell>
        <mxCell id="fTYlHA8iuK9BBwbpo4Ni-26" value="" style="endArrow=none;dashed=1;html=1;rounded=0;exitX=0.5;exitY=1;exitDx=0;exitDy=0;" parent="1" source="fTYlHA8iuK9BBwbpo4Ni-10" target="fTYlHA8iuK9BBwbpo4Ni-25" edge="1">
          <mxGeometry width="50" height="50" relative="1" as="geometry">
            <mxPoint x="190" y="-770" as="sourcePoint" />
            <mxPoint x="190" y="-359.2000732421875" as="targetPoint" />
          </mxGeometry>
        </mxCell>
        <mxCell id="fTYlHA8iuK9BBwbpo4Ni-25" value="" style="rounded=0;whiteSpace=wrap;html=1;" parent="1" vertex="1">
          <mxGeometry x="180" y="-730" width="20" height="40" as="geometry" />
        </mxCell>
        <mxCell id="fTYlHA8iuK9BBwbpo4Ni-28" value="" style="endArrow=none;dashed=1;html=1;rounded=0;entryX=0.5;entryY=1;entryDx=0;entryDy=0;" parent="1" target="fTYlHA8iuK9BBwbpo4Ni-27" edge="1">
          <mxGeometry width="50" height="50" relative="1" as="geometry">
            <mxPoint x="410" y="-520" as="sourcePoint" />
            <mxPoint x="410" y="-810" as="targetPoint" />
          </mxGeometry>
        </mxCell>
        <mxCell id="fTYlHA8iuK9BBwbpo4Ni-27" value="" style="rounded=0;whiteSpace=wrap;html=1;" parent="1" vertex="1">
          <mxGeometry x="400" y="-690" width="20" height="40" as="geometry" />
        </mxCell>
        <mxCell id="fTYlHA8iuK9BBwbpo4Ni-29" value="" style="endArrow=classic;html=1;rounded=0;entryX=1;entryY=0;entryDx=0;entryDy=0;endSize=10;exitX=0;exitY=1;exitDx=0;exitDy=0;dashed=1;dashPattern=1 2;" parent="1" source="fTYlHA8iuK9BBwbpo4Ni-22" target="fTYlHA8iuK9BBwbpo4Ni-25" edge="1">
          <mxGeometry width="50" height="50" relative="1" as="geometry">
            <mxPoint x="210" y="-760" as="sourcePoint" />
            <mxPoint x="410" y="-760" as="targetPoint" />
          </mxGeometry>
        </mxCell>
        <mxCell id="fTYlHA8iuK9BBwbpo4Ni-30" value="Forward the message&lt;br&gt;&amp;nbsp;to the recipient" style="endArrow=classic;html=1;rounded=0;endSize=10;exitX=1;exitY=1;exitDx=0;exitDy=0;entryX=0;entryY=0;entryDx=0;entryDy=0;" parent="1" source="fTYlHA8iuK9BBwbpo4Ni-27" target="fTYlHA8iuK9BBwbpo4Ni-31" edge="1">
          <mxGeometry x="0.0038" width="50" height="50" relative="1" as="geometry">
            <mxPoint x="470" y="-610" as="sourcePoint" />
            <mxPoint x="540" y="-670" as="targetPoint" />
            <mxPoint as="offset" />
          </mxGeometry>
        </mxCell>
        <mxCell id="fTYlHA8iuK9BBwbpo4Ni-32" value="" style="endArrow=none;dashed=1;html=1;rounded=0;entryX=0.5;entryY=1;entryDx=0;entryDy=0;" parent="1" target="fTYlHA8iuK9BBwbpo4Ni-31" edge="1">
          <mxGeometry width="50" height="50" relative="1" as="geometry">
            <mxPoint x="610" y="-520" as="sourcePoint" />
            <mxPoint x="610" y="-970" as="targetPoint" />
          </mxGeometry>
        </mxCell>
        <mxCell id="fTYlHA8iuK9BBwbpo4Ni-31" value="" style="rounded=0;whiteSpace=wrap;html=1;" parent="1" vertex="1">
          <mxGeometry x="600" y="-650" width="20" height="40" as="geometry" />
        </mxCell>
        <mxCell id="fTYlHA8iuK9BBwbpo4Ni-33" value="" style="rounded=0;whiteSpace=wrap;html=1;" parent="1" vertex="1">
          <mxGeometry x="400" y="-610" width="20" height="40" as="geometry" />
        </mxCell>
        <mxCell id="fTYlHA8iuK9BBwbpo4Ni-35" value="Receive messages" style="endArrow=classic;html=1;rounded=0;endSize=10;exitX=0;exitY=1;exitDx=0;exitDy=0;entryX=1;entryY=0;entryDx=0;entryDy=0;" parent="1" source="fTYlHA8iuK9BBwbpo4Ni-31" target="fTYlHA8iuK9BBwbpo4Ni-33" edge="1">
          <mxGeometry x="0.0038" width="50" height="50" relative="1" as="geometry">
            <mxPoint x="440" y="-630" as="sourcePoint" />
            <mxPoint x="620" y="-630" as="targetPoint" />
            <mxPoint as="offset" />
          </mxGeometry>
        </mxCell>
        <mxCell id="fTYlHA8iuK9BBwbpo4Ni-36" value="Display messages" style="endArrow=classic;html=1;rounded=0;endSize=10;exitX=0;exitY=1;exitDx=0;exitDy=0;" parent="1" source="fTYlHA8iuK9BBwbpo4Ni-33" edge="1">
          <mxGeometry x="0.0038" width="50" height="50" relative="1" as="geometry">
            <mxPoint x="370" y="-551" as="sourcePoint" />
            <mxPoint x="190" y="-570" as="targetPoint" />
            <mxPoint as="offset" />
          </mxGeometry>
        </mxCell>
        <mxCell id="fTYlHA8iuK9BBwbpo4Ni-37" value="User" style="rounded=0;whiteSpace=wrap;html=1;" parent="1" vertex="1">
          <mxGeometry x="150" y="-460" width="120" height="60" as="geometry" />
        </mxCell>
        <mxCell id="fTYlHA8iuK9BBwbpo4Ni-38" value="System" style="rounded=0;whiteSpace=wrap;html=1;" parent="1" vertex="1">
          <mxGeometry x="370" y="-460" width="120" height="60" as="geometry" />
        </mxCell>
        <mxCell id="fTYlHA8iuK9BBwbpo4Ni-40" value="" style="endArrow=none;dashed=1;html=1;rounded=0;entryX=0.5;entryY=1;entryDx=0;entryDy=0;" parent="1" source="fTYlHA8iuK9BBwbpo4Ni-44" target="fTYlHA8iuK9BBwbpo4Ni-38" edge="1">
          <mxGeometry width="50" height="50" relative="1" as="geometry">
            <mxPoint x="430" y="200" as="sourcePoint" />
            <mxPoint x="470" y="-370" as="targetPoint" />
          </mxGeometry>
        </mxCell>
        <mxCell id="fTYlHA8iuK9BBwbpo4Ni-41" value="Accounts&amp;nbsp;" style="rounded=0;whiteSpace=wrap;html=1;" parent="1" vertex="1">
          <mxGeometry x="780" y="-460" width="120" height="60" as="geometry" />
        </mxCell>
        <mxCell id="fTYlHA8iuK9BBwbpo4Ni-42" value="" style="endArrow=none;dashed=1;html=1;rounded=0;entryX=0.5;entryY=1;entryDx=0;entryDy=0;" parent="1" source="fTYlHA8iuK9BBwbpo4Ni-52" target="fTYlHA8iuK9BBwbpo4Ni-41" edge="1">
          <mxGeometry width="50" height="50" relative="1" as="geometry">
            <mxPoint x="840" y="200" as="sourcePoint" />
            <mxPoint x="720" y="-370" as="targetPoint" />
          </mxGeometry>
        </mxCell>
        <mxCell id="fTYlHA8iuK9BBwbpo4Ni-43" value="" style="endArrow=none;dashed=1;html=1;rounded=0;entryX=0.5;entryY=1;entryDx=0;entryDy=0;" parent="1" source="fTYlHA8iuK9BBwbpo4Ni-56" target="fTYlHA8iuK9BBwbpo4Ni-44" edge="1">
          <mxGeometry width="50" height="50" relative="1" as="geometry">
            <mxPoint x="430" y="200" as="sourcePoint" />
            <mxPoint x="430" y="-400" as="targetPoint" />
          </mxGeometry>
        </mxCell>
        <mxCell id="fTYlHA8iuK9BBwbpo4Ni-44" value="" style="rounded=0;whiteSpace=wrap;html=1;" parent="1" vertex="1">
          <mxGeometry x="420" y="-380" width="20" height="70" as="geometry" />
        </mxCell>
        <mxCell id="fTYlHA8iuK9BBwbpo4Ni-45" value="Login" style="endArrow=classic;html=1;rounded=0;entryX=0;entryY=0;entryDx=0;entryDy=0;endSize=10;" parent="1" target="fTYlHA8iuK9BBwbpo4Ni-44" edge="1">
          <mxGeometry width="50" height="50" relative="1" as="geometry">
            <mxPoint x="210" y="-380" as="sourcePoint" />
            <mxPoint x="450" y="-370" as="targetPoint" />
          </mxGeometry>
        </mxCell>
        <mxCell id="fTYlHA8iuK9BBwbpo4Ni-46" value="" style="endArrow=none;dashed=1;html=1;rounded=0;exitX=0.5;exitY=1;exitDx=0;exitDy=0;" parent="1" source="fTYlHA8iuK9BBwbpo4Ni-37" target="fTYlHA8iuK9BBwbpo4Ni-47" edge="1">
          <mxGeometry width="50" height="50" relative="1" as="geometry">
            <mxPoint x="210" y="-400" as="sourcePoint" />
            <mxPoint x="210" y="210.7999267578125" as="targetPoint" />
          </mxGeometry>
        </mxCell>
        <mxCell id="fTYlHA8iuK9BBwbpo4Ni-47" value="" style="rounded=0;whiteSpace=wrap;html=1;" parent="1" vertex="1">
          <mxGeometry x="200" y="-240" width="20" height="40" as="geometry" />
        </mxCell>
        <mxCell id="fTYlHA8iuK9BBwbpo4Ni-48" value="Get a list of contacts" style="endArrow=classic;html=1;rounded=0;entryX=0;entryY=0;entryDx=0;entryDy=0;endFill=1;endSize=10;" parent="1" target="fTYlHA8iuK9BBwbpo4Ni-52" edge="1">
          <mxGeometry x="-0.3659" width="50" height="50" relative="1" as="geometry">
            <mxPoint x="420" y="-310" as="sourcePoint" />
            <mxPoint x="470" y="-360" as="targetPoint" />
            <mxPoint as="offset" />
          </mxGeometry>
        </mxCell>
        <mxCell id="fTYlHA8iuK9BBwbpo4Ni-49" value="Message" style="rounded=0;whiteSpace=wrap;html=1;" parent="1" vertex="1">
          <mxGeometry x="570" y="-460" width="120" height="60" as="geometry" />
        </mxCell>
        <mxCell id="fTYlHA8iuK9BBwbpo4Ni-50" value="" style="endArrow=none;dashed=1;html=1;rounded=0;entryX=0.5;entryY=1;entryDx=0;entryDy=0;" parent="1" source="fTYlHA8iuK9BBwbpo4Ni-72" target="fTYlHA8iuK9BBwbpo4Ni-49" edge="1">
          <mxGeometry width="50" height="50" relative="1" as="geometry">
            <mxPoint x="630" y="200" as="sourcePoint" />
            <mxPoint x="650" y="-370" as="targetPoint" />
          </mxGeometry>
        </mxCell>
        <mxCell id="fTYlHA8iuK9BBwbpo4Ni-51" value="" style="endArrow=none;dashed=1;html=1;rounded=0;entryX=0.5;entryY=1;entryDx=0;entryDy=0;" parent="1" target="fTYlHA8iuK9BBwbpo4Ni-52" edge="1">
          <mxGeometry width="50" height="50" relative="1" as="geometry">
            <mxPoint x="840" as="sourcePoint" />
            <mxPoint x="840" y="-400" as="targetPoint" />
          </mxGeometry>
        </mxCell>
        <mxCell id="fTYlHA8iuK9BBwbpo4Ni-52" value="" style="rounded=0;whiteSpace=wrap;html=1;" parent="1" vertex="1">
          <mxGeometry x="830" y="-310" width="20" height="40" as="geometry" />
        </mxCell>
        <mxCell id="fTYlHA8iuK9BBwbpo4Ni-53" value="Return result" style="endArrow=classic;html=1;rounded=0;endFill=1;endSize=10;exitX=0;exitY=1;exitDx=0;exitDy=0;entryX=1;entryY=0;entryDx=0;entryDy=0;" parent="1" source="fTYlHA8iuK9BBwbpo4Ni-52" target="fTYlHA8iuK9BBwbpo4Ni-56" edge="1">
          <mxGeometry x="-0.3659" width="50" height="50" relative="1" as="geometry">
            <mxPoint x="430" y="-300" as="sourcePoint" />
            <mxPoint x="450" y="-270" as="targetPoint" />
            <mxPoint as="offset" />
          </mxGeometry>
        </mxCell>
        <mxCell id="fTYlHA8iuK9BBwbpo4Ni-54" value="Show contact list" style="endArrow=classic;html=1;rounded=0;endFill=1;endSize=10;entryX=1;entryY=0;entryDx=0;entryDy=0;exitX=0;exitY=1;exitDx=0;exitDy=0;" parent="1" source="fTYlHA8iuK9BBwbpo4Ni-56" target="fTYlHA8iuK9BBwbpo4Ni-47" edge="1">
          <mxGeometry x="0.1" width="50" height="50" relative="1" as="geometry">
            <mxPoint x="640" y="-170" as="sourcePoint" />
            <mxPoint x="550" y="-220" as="targetPoint" />
            <mxPoint as="offset" />
          </mxGeometry>
        </mxCell>
        <mxCell id="fTYlHA8iuK9BBwbpo4Ni-55" value="" style="endArrow=none;dashed=1;html=1;rounded=0;entryX=0.5;entryY=1;entryDx=0;entryDy=0;" parent="1" source="fTYlHA8iuK9BBwbpo4Ni-63" target="fTYlHA8iuK9BBwbpo4Ni-56" edge="1">
          <mxGeometry width="50" height="50" relative="1" as="geometry">
            <mxPoint x="430" y="200" as="sourcePoint" />
            <mxPoint x="430" y="-310" as="targetPoint" />
          </mxGeometry>
        </mxCell>
        <mxCell id="fTYlHA8iuK9BBwbpo4Ni-56" value="" style="rounded=0;whiteSpace=wrap;html=1;" parent="1" vertex="1">
          <mxGeometry x="420" y="-270" width="20" height="30" as="geometry" />
        </mxCell>
        <mxCell id="fTYlHA8iuK9BBwbpo4Ni-57" value="Request to see list of messages" style="endArrow=classic;html=1;rounded=0;entryX=0;entryY=0;entryDx=0;entryDy=0;endSize=10;exitX=1;exitY=1;exitDx=0;exitDy=0;" parent="1" source="fTYlHA8iuK9BBwbpo4Ni-47" target="fTYlHA8iuK9BBwbpo4Ni-58" edge="1">
          <mxGeometry width="50" height="50" relative="1" as="geometry">
            <mxPoint x="230" y="-170" as="sourcePoint" />
            <mxPoint x="440" y="-170" as="targetPoint" />
          </mxGeometry>
        </mxCell>
        <mxCell id="fTYlHA8iuK9BBwbpo4Ni-58" value="" style="rounded=0;whiteSpace=wrap;html=1;" parent="1" vertex="1">
          <mxGeometry x="420" y="-200" width="20" height="40" as="geometry" />
        </mxCell>
        <mxCell id="fTYlHA8iuK9BBwbpo4Ni-59" value="Return results" style="endArrow=classic;html=1;rounded=0;endSize=10;exitX=0;exitY=1;exitDx=0;exitDy=0;entryX=1;entryY=0;entryDx=0;entryDy=0;" parent="1" source="fTYlHA8iuK9BBwbpo4Ni-72" target="fTYlHA8iuK9BBwbpo4Ni-63" edge="1">
          <mxGeometry width="50" height="50" relative="1" as="geometry">
            <mxPoint x="250" y="-110" as="sourcePoint" />
            <mxPoint x="410" y="-120" as="targetPoint" />
          </mxGeometry>
        </mxCell>
        <mxCell id="fTYlHA8iuK9BBwbpo4Ni-60" value="" style="endArrow=none;dashed=1;html=1;rounded=0;exitX=0.5;exitY=1;exitDx=0;exitDy=0;" parent="1" source="fTYlHA8iuK9BBwbpo4Ni-47" edge="1">
          <mxGeometry width="50" height="50" relative="1" as="geometry">
            <mxPoint x="210" y="-200" as="sourcePoint" />
            <mxPoint x="210" as="targetPoint" />
          </mxGeometry>
        </mxCell>
        <mxCell id="fTYlHA8iuK9BBwbpo4Ni-62" value="" style="endArrow=none;dashed=1;html=1;rounded=0;entryX=0.5;entryY=1;entryDx=0;entryDy=0;" parent="1" target="fTYlHA8iuK9BBwbpo4Ni-63" edge="1">
          <mxGeometry width="50" height="50" relative="1" as="geometry">
            <mxPoint x="430" as="sourcePoint" />
            <mxPoint x="430" y="-240" as="targetPoint" />
          </mxGeometry>
        </mxCell>
        <mxCell id="fTYlHA8iuK9BBwbpo4Ni-63" value="" style="rounded=0;whiteSpace=wrap;html=1;" parent="1" vertex="1">
          <mxGeometry x="420" y="-120" width="20" height="40" as="geometry" />
        </mxCell>
        <mxCell id="fTYlHA8iuK9BBwbpo4Ni-71" value="Get a list of messages" style="endArrow=classic;html=1;rounded=0;endSize=10;exitX=1;exitY=1;exitDx=0;exitDy=0;entryX=0;entryY=0;entryDx=0;entryDy=0;" parent="1" source="fTYlHA8iuK9BBwbpo4Ni-58" target="fTYlHA8iuK9BBwbpo4Ni-72" edge="1">
          <mxGeometry width="50" height="50" relative="1" as="geometry">
            <mxPoint x="580" y="-140" as="sourcePoint" />
            <mxPoint x="820" y="-130" as="targetPoint" />
          </mxGeometry>
        </mxCell>
        <mxCell id="fTYlHA8iuK9BBwbpo4Ni-73" value="" style="endArrow=none;dashed=1;html=1;rounded=0;entryX=0.5;entryY=1;entryDx=0;entryDy=0;" parent="1" target="fTYlHA8iuK9BBwbpo4Ni-72" edge="1">
          <mxGeometry width="50" height="50" relative="1" as="geometry">
            <mxPoint x="630" as="sourcePoint" />
            <mxPoint x="630" y="-400" as="targetPoint" />
          </mxGeometry>
        </mxCell>
        <mxCell id="fTYlHA8iuK9BBwbpo4Ni-72" value="" style="rounded=0;whiteSpace=wrap;html=1;" parent="1" vertex="1">
          <mxGeometry x="620" y="-160" width="20" height="40" as="geometry" />
        </mxCell>
        <mxCell id="fTYlHA8iuK9BBwbpo4Ni-74" value="Display all messages" style="endArrow=classic;html=1;rounded=0;endSize=10;exitX=0;exitY=1;exitDx=0;exitDy=0;" parent="1" source="fTYlHA8iuK9BBwbpo4Ni-63" edge="1">
          <mxGeometry width="50" height="50" relative="1" as="geometry">
            <mxPoint x="630" y="-110" as="sourcePoint" />
            <mxPoint x="210" y="-80" as="targetPoint" />
          </mxGeometry>
        </mxCell>
        <mxCell id="fTYlHA8iuK9BBwbpo4Ni-75" value="User" style="rounded=0;whiteSpace=wrap;html=1;" parent="1" vertex="1">
          <mxGeometry x="140" y="50" width="120" height="60" as="geometry" />
        </mxCell>
        <mxCell id="fTYlHA8iuK9BBwbpo4Ni-76" value="System" style="rounded=0;whiteSpace=wrap;html=1;" parent="1" vertex="1">
          <mxGeometry x="360" y="50" width="120" height="60" as="geometry" />
        </mxCell>
        <mxCell id="fTYlHA8iuK9BBwbpo4Ni-77" value="" style="endArrow=none;dashed=1;html=1;rounded=0;entryX=0.5;entryY=1;entryDx=0;entryDy=0;" parent="1" source="fTYlHA8iuK9BBwbpo4Ni-79" target="fTYlHA8iuK9BBwbpo4Ni-76" edge="1">
          <mxGeometry width="50" height="50" relative="1" as="geometry">
            <mxPoint x="420" y="710" as="sourcePoint" />
            <mxPoint x="460" y="140" as="targetPoint" />
          </mxGeometry>
        </mxCell>
        <mxCell id="fTYlHA8iuK9BBwbpo4Ni-78" value="" style="endArrow=none;dashed=1;html=1;rounded=0;entryX=0.5;entryY=1;entryDx=0;entryDy=0;" parent="1" source="fTYlHA8iuK9BBwbpo4Ni-87" target="fTYlHA8iuK9BBwbpo4Ni-79" edge="1">
          <mxGeometry width="50" height="50" relative="1" as="geometry">
            <mxPoint x="420" y="710" as="sourcePoint" />
            <mxPoint x="420" y="110" as="targetPoint" />
          </mxGeometry>
        </mxCell>
        <mxCell id="fTYlHA8iuK9BBwbpo4Ni-79" value="" style="rounded=0;whiteSpace=wrap;html=1;" parent="1" vertex="1">
          <mxGeometry x="410" y="130" width="20" height="70" as="geometry" />
        </mxCell>
        <mxCell id="fTYlHA8iuK9BBwbpo4Ni-80" value="Login" style="endArrow=classic;html=1;rounded=0;entryX=0;entryY=0;entryDx=0;entryDy=0;endSize=10;" parent="1" target="fTYlHA8iuK9BBwbpo4Ni-79" edge="1">
          <mxGeometry width="50" height="50" relative="1" as="geometry">
            <mxPoint x="200" y="130" as="sourcePoint" />
            <mxPoint x="440" y="140" as="targetPoint" />
          </mxGeometry>
        </mxCell>
        <mxCell id="fTYlHA8iuK9BBwbpo4Ni-81" value="" style="endArrow=none;dashed=1;html=1;rounded=0;exitX=0.5;exitY=1;exitDx=0;exitDy=0;" parent="1" source="fTYlHA8iuK9BBwbpo4Ni-75" target="fTYlHA8iuK9BBwbpo4Ni-82" edge="1">
          <mxGeometry width="50" height="50" relative="1" as="geometry">
            <mxPoint x="200" y="110" as="sourcePoint" />
            <mxPoint x="200" y="720.7999267578125" as="targetPoint" />
          </mxGeometry>
        </mxCell>
        <mxCell id="fTYlHA8iuK9BBwbpo4Ni-82" value="" style="rounded=0;whiteSpace=wrap;html=1;" parent="1" vertex="1">
          <mxGeometry x="190" y="200" width="20" height="40" as="geometry" />
        </mxCell>
        <mxCell id="fTYlHA8iuK9BBwbpo4Ni-83" value="Notification" style="rounded=0;whiteSpace=wrap;html=1;" parent="1" vertex="1">
          <mxGeometry x="560" y="50" width="120" height="60" as="geometry" />
        </mxCell>
        <mxCell id="fTYlHA8iuK9BBwbpo4Ni-84" value="" style="endArrow=none;dashed=1;html=1;rounded=0;entryX=0.5;entryY=1;entryDx=0;entryDy=0;" parent="1" source="fTYlHA8iuK9BBwbpo4Ni-96" target="fTYlHA8iuK9BBwbpo4Ni-83" edge="1">
          <mxGeometry width="50" height="50" relative="1" as="geometry">
            <mxPoint x="620" y="710" as="sourcePoint" />
            <mxPoint x="640" y="140" as="targetPoint" />
          </mxGeometry>
        </mxCell>
        <mxCell id="fTYlHA8iuK9BBwbpo4Ni-85" value="" style="endArrow=classic;html=1;rounded=0;endFill=1;endSize=10;entryX=1;entryY=0;entryDx=0;entryDy=0;exitX=0;exitY=1;exitDx=0;exitDy=0;dashed=1;dashPattern=1 2;" parent="1" source="fTYlHA8iuK9BBwbpo4Ni-79" target="fTYlHA8iuK9BBwbpo4Ni-82" edge="1">
          <mxGeometry x="0.1" width="50" height="50" relative="1" as="geometry">
            <mxPoint x="630" y="340" as="sourcePoint" />
            <mxPoint x="540" y="290" as="targetPoint" />
            <mxPoint as="offset" />
          </mxGeometry>
        </mxCell>
        <mxCell id="fTYlHA8iuK9BBwbpo4Ni-86" value="" style="endArrow=none;dashed=1;html=1;rounded=0;entryX=0.5;entryY=1;entryDx=0;entryDy=0;" parent="1" target="fTYlHA8iuK9BBwbpo4Ni-87" edge="1">
          <mxGeometry width="50" height="50" relative="1" as="geometry">
            <mxPoint x="420" y="500" as="sourcePoint" />
            <mxPoint x="420" y="200" as="targetPoint" />
          </mxGeometry>
        </mxCell>
        <mxCell id="fTYlHA8iuK9BBwbpo4Ni-87" value="" style="rounded=0;whiteSpace=wrap;html=1;" parent="1" vertex="1">
          <mxGeometry x="410" y="240" width="20" height="30" as="geometry" />
        </mxCell>
        <mxCell id="fTYlHA8iuK9BBwbpo4Ni-88" value="Request to see list of notification" style="endArrow=classic;html=1;rounded=0;entryX=0;entryY=0;entryDx=0;entryDy=0;endSize=10;exitX=1;exitY=1;exitDx=0;exitDy=0;" parent="1" source="fTYlHA8iuK9BBwbpo4Ni-82" target="fTYlHA8iuK9BBwbpo4Ni-87" edge="1">
          <mxGeometry width="50" height="50" relative="1" as="geometry">
            <mxPoint x="220" y="340" as="sourcePoint" />
            <mxPoint x="430" y="340" as="targetPoint" />
          </mxGeometry>
        </mxCell>
        <mxCell id="fTYlHA8iuK9BBwbpo4Ni-89" value="" style="rounded=0;whiteSpace=wrap;html=1;" parent="1" vertex="1">
          <mxGeometry x="410" y="310" width="20" height="40" as="geometry" />
        </mxCell>
        <mxCell id="fTYlHA8iuK9BBwbpo4Ni-90" value="Return results" style="endArrow=classic;html=1;rounded=0;endSize=10;exitX=0;exitY=1;exitDx=0;exitDy=0;entryX=1;entryY=0;entryDx=0;entryDy=0;" parent="1" source="fTYlHA8iuK9BBwbpo4Ni-96" target="fTYlHA8iuK9BBwbpo4Ni-89" edge="1">
          <mxGeometry width="50" height="50" relative="1" as="geometry">
            <mxPoint x="240" y="400" as="sourcePoint" />
            <mxPoint x="400" y="390" as="targetPoint" />
          </mxGeometry>
        </mxCell>
        <mxCell id="fTYlHA8iuK9BBwbpo4Ni-91" value="" style="endArrow=none;dashed=1;html=1;rounded=0;exitX=0.5;exitY=1;exitDx=0;exitDy=0;" parent="1" source="fTYlHA8iuK9BBwbpo4Ni-82" edge="1">
          <mxGeometry width="50" height="50" relative="1" as="geometry">
            <mxPoint x="200" y="310" as="sourcePoint" />
            <mxPoint x="200" y="500" as="targetPoint" />
          </mxGeometry>
        </mxCell>
        <mxCell id="fTYlHA8iuK9BBwbpo4Ni-94" value="Get a list of notification" style="endArrow=classic;html=1;rounded=0;endSize=10;exitX=1;exitY=1;exitDx=0;exitDy=0;entryX=0;entryY=0;entryDx=0;entryDy=0;" parent="1" source="fTYlHA8iuK9BBwbpo4Ni-87" target="fTYlHA8iuK9BBwbpo4Ni-96" edge="1">
          <mxGeometry width="50" height="50" relative="1" as="geometry">
            <mxPoint x="570" y="370" as="sourcePoint" />
            <mxPoint x="810" y="380" as="targetPoint" />
          </mxGeometry>
        </mxCell>
        <mxCell id="fTYlHA8iuK9BBwbpo4Ni-95" value="" style="endArrow=none;dashed=1;html=1;rounded=0;entryX=0.5;entryY=1;entryDx=0;entryDy=0;" parent="1" target="fTYlHA8iuK9BBwbpo4Ni-96" edge="1">
          <mxGeometry width="50" height="50" relative="1" as="geometry">
            <mxPoint x="620" y="500" as="sourcePoint" />
            <mxPoint x="620" y="110" as="targetPoint" />
          </mxGeometry>
        </mxCell>
        <mxCell id="fTYlHA8iuK9BBwbpo4Ni-96" value="" style="rounded=0;whiteSpace=wrap;html=1;" parent="1" vertex="1">
          <mxGeometry x="610" y="270" width="20" height="40" as="geometry" />
        </mxCell>
        <mxCell id="fTYlHA8iuK9BBwbpo4Ni-97" value="Display notifications&amp;nbsp;" style="endArrow=classic;html=1;rounded=0;endSize=10;exitX=0;exitY=1;exitDx=0;exitDy=0;entryX=1;entryY=0;entryDx=0;entryDy=0;" parent="1" source="fTYlHA8iuK9BBwbpo4Ni-89" target="fTYlHA8iuK9BBwbpo4Ni-98" edge="1">
          <mxGeometry width="50" height="50" relative="1" as="geometry">
            <mxPoint x="620" y="400" as="sourcePoint" />
            <mxPoint x="200" y="350" as="targetPoint" />
          </mxGeometry>
        </mxCell>
        <mxCell id="fTYlHA8iuK9BBwbpo4Ni-98" value="" style="rounded=0;whiteSpace=wrap;html=1;" parent="1" vertex="1">
          <mxGeometry x="190" y="350" width="20" height="40" as="geometry" />
        </mxCell>
        <mxCell id="fTYlHA8iuK9BBwbpo4Ni-100" value="" style="rounded=0;whiteSpace=wrap;html=1;" parent="1" vertex="1">
          <mxGeometry x="410" y="390" width="20" height="40" as="geometry" />
        </mxCell>
        <mxCell id="fTYlHA8iuK9BBwbpo4Ni-101" value="Select a notification&amp;nbsp;" style="endArrow=classic;html=1;rounded=0;endSize=10;exitX=1;exitY=1;exitDx=0;exitDy=0;entryX=0;entryY=0;entryDx=0;entryDy=0;" parent="1" source="fTYlHA8iuK9BBwbpo4Ni-98" target="fTYlHA8iuK9BBwbpo4Ni-100" edge="1">
          <mxGeometry width="50" height="50" relative="1" as="geometry">
            <mxPoint x="420" y="360" as="sourcePoint" />
            <mxPoint x="220" y="360" as="targetPoint" />
            <mxPoint as="offset" />
          </mxGeometry>
        </mxCell>
        <mxCell id="fTYlHA8iuK9BBwbpo4Ni-102" value="Display notification details&amp;nbsp;" style="endArrow=classic;html=1;rounded=0;endSize=10;exitX=0;exitY=1;exitDx=0;exitDy=0;" parent="1" source="fTYlHA8iuK9BBwbpo4Ni-100" edge="1">
          <mxGeometry width="50" height="50" relative="1" as="geometry">
            <mxPoint x="420" y="360" as="sourcePoint" />
            <mxPoint x="200" y="430" as="targetPoint" />
          </mxGeometry>
        </mxCell>
      </root>
    </mxGraphModel>
  </diagram>
</mxfile>
